# xmcd CD database file
#
# Track frame offsets:
#	150
#	24637
#	45090
#	70130
#	91210
#	116450
#	133672
#	157680
#	173940
#	197870
#	214735
#
# Disc length: 3123 seconds
#
# Revision: 0
# Processed by: cddbd v1.4PL0 Copyright (c) Steve Scherf et al.
# Submitted via: CDex 1.50
#
DISCID=8a0c310b
DTITLE=Stephan Grappelli - So Easy To Remember
DYEAR=1993
DGENRE=Jazz
TTITLE0=(i Can't Believe That) You're Still In Love With Me
TTITLE1=Smoke Gets In Your Eyes
TTITLE2=It's So Easy To Remember
TTITLE3=In A Sentimental Mood
TTITLE4=Love For Sale
TTITLE5=You Brought A New Kind Of Love To Me
TTITLE6=For All We Know
TTITLE7=Night And Day
TTITLE8=I'm Confessin'
TTITLE9=How High The Moon
TTITLE10=God Bless The Child
EXTD=YEAR: 1993
EXTT0=
EXTT1=
EXTT2=
EXTT3=
EXTT4=
EXTT5=
EXTT6=
EXTT7=
EXTT8=
EXTT9=
EXTT10=
PLAYORDER=
